<svg width="707" height="228" viewBox="0 0 707 228" fill="none" xmlns="http://www.w3.org/2000/svg">
<path d="M72.0199 19.0394C66.0357 22.0315 57.0593 28.6457 49.9727 35.5748L37.8467 47.0709L35.9569 38.7244C33.4372 27.2283 30.4451 23.4488 24.3034 23.4488C21.4687 23.4488 17.6892 24.5512 15.642 25.811C11.8624 28.4882 9.18526 36.3622 10.2876 42.0315C11.075 45.811 17.3742 53.3701 22.2561 56.0472C24.9333 57.4646 24.7758 58.252 18.949 68.0157C-6.24781 109.748 -6.09033 179.354 19.264 207.543C24.9333 213.685 25.5632 214 34.5396 214C39.7364 214 43.6734 213.528 43.3585 212.74C33.2797 193.213 34.6971 177.78 46.8231 177.78C56.1144 177.78 63.201 190.85 62.4136 205.969L61.9412 213.213L91.2325 213.685L120.366 214L121.469 205.969C124.146 186.283 136.902 174.945 146.193 184.236C150.76 188.803 149.5 198.094 143.044 207.228L138.162 214H143.516C150.13 214 155.484 208.331 162.099 194.157C171.233 174.787 171.705 148.803 163.358 124.236L160.051 114.315L163.201 106.756C169.815 91.6378 165.721 79.1969 150.603 68.9606C145.563 65.4961 141.311 62.0315 141.311 61.2441C141.311 60.6142 138.949 56.6772 135.957 52.8976L130.603 45.811L135.17 42.5039C143.358 36.3622 142.571 26.5984 133.91 26.5984C130.288 26.5984 123.516 31.7953 122.256 35.8898C121.784 37.3071 119.264 36.6772 112.965 33.8425C108.24 31.6378 102.256 29.748 99.579 29.5906C97.0593 29.5906 93.5947 28.9606 91.8624 28.3307C89.1853 27.3858 89.3427 26.9134 93.2797 22.189C95.642 19.3543 97.2168 17.1496 96.7443 17.1496C94.2246 17.1496 82.0986 22.3465 78.1616 25.0236C72.0199 29.4331 72.3349 26.9134 78.949 19.8268C81.7837 16.6772 83.6734 14 83.0435 14C82.4136 14 77.5317 16.2047 72.0199 19.0394ZM75.642 62.3465C79.4215 66.5984 80.3664 73.0551 78.3191 79.3543C76.1144 85.9685 71.8624 88.8032 67.453 86.5984C63.6734 84.5512 62.5711 81.5591 62.5711 73.2126C62.5711 61.874 69.8152 55.8898 75.642 62.3465ZM120.209 65.4961C124.776 71.4803 121.311 86.4409 115.327 86.4409C109.658 86.4409 106.036 72.8976 109.815 65.811C111.862 62.0315 117.374 61.874 120.209 65.4961ZM51.5475 90.378C58.4766 94 62.5711 100.142 62.5711 107.228C62.5711 119.039 54.6971 127.386 43.6734 127.386C27.138 127.386 18.3191 108.488 29.0278 95.8898C35.642 88.0157 43.201 86.126 51.5475 90.378ZM147.138 91.4803C149.343 93.5276 150.76 96.6772 150.76 99.3543C150.76 105.024 144.461 111.638 138.949 111.638C136.744 111.638 133.122 109.906 131.075 107.701C128.87 105.654 127.138 102.031 127.138 99.8268C127.138 94.4724 133.752 88.0157 139.107 88.0157C141.469 88.0157 145.091 89.5906 147.138 91.4803ZM100.366 94.1575C97.8467 98.8819 95.642 99.6693 92.4923 96.6772C88.3979 93.0551 89.8152 91.1654 96.5868 91.1654C101.469 91.1654 101.941 91.4803 100.366 94.1575ZM111.862 115.417C115.012 120.772 119.579 129.591 122.256 135.102C126.823 144.866 126.981 145.496 124.303 148.331C122.886 150.063 118.477 152.74 114.697 154.472C108.398 157.15 107.925 157.622 110.13 159.827C112.807 162.504 124.933 165.811 127.295 164.394C129.973 162.661 128.713 172.268 125.563 177.307C115.957 193.213 86.5081 192.74 76.1144 176.52C69.1853 165.969 69.3427 164.236 77.3742 162.189C85.4057 160.142 93.5947 154 91.8624 151.323C91.2325 150.22 88.5553 149.433 86.0357 149.433C83.516 149.433 78.949 148.331 75.7994 147.071C70.9175 145.024 70.4451 144.394 71.39 140.457C73.2797 131.323 78.4766 116.992 81.3112 112.268C83.8309 108.173 85.0908 107.543 89.0278 108.173C91.5475 108.488 94.0671 108.173 94.5396 107.386C95.012 106.598 97.8467 105.969 100.839 105.969C105.878 105.969 106.823 106.756 111.862 115.417Z" fill="#5F1D07"/>
<path d="M300.854 160.71C292.95 160.71 285.844 158.924 279.536 155.352C273.304 151.78 268.402 146.84 264.83 140.532C261.334 134.224 259.586 127.08 259.586 119.1C259.586 111.12 261.334 103.976 264.83 97.668C268.402 91.36 273.304 86.42 279.536 82.848C285.844 79.276 292.95 77.49 300.854 77.49C307.77 77.49 314.078 78.972 319.778 81.936C325.554 84.824 330.19 88.89 333.686 94.134C337.258 99.378 339.31 105.268 339.842 111.804H321.374C320.69 108.46 319.36 105.572 317.384 103.14C315.484 100.632 313.09 98.694 310.202 97.326C307.39 95.958 304.198 95.274 300.626 95.274C296.294 95.274 292.418 96.3 288.998 98.352C285.654 100.404 283.032 103.254 281.132 106.902C279.232 110.474 278.282 114.54 278.282 119.1C278.282 123.66 279.232 127.764 281.132 131.412C283.032 134.984 285.654 137.796 288.998 139.848C292.418 141.824 296.294 142.812 300.626 142.812C304.198 142.812 307.39 142.166 310.202 140.874C313.09 139.506 315.484 137.606 317.384 135.174C319.36 132.666 320.69 129.74 321.374 126.396H339.842C339.31 132.932 337.258 138.822 333.686 144.066C330.19 149.31 325.554 153.414 319.778 156.378C314.078 159.266 307.77 160.71 300.854 160.71ZM353.746 159V78.06H369.592V121.722C370.656 115.414 373.012 110.36 376.66 106.56C380.384 102.76 384.906 100.86 390.226 100.86C394.482 100.86 398.206 101.924 401.398 104.052C404.59 106.18 407.06 109.22 408.808 113.172C410.556 117.048 411.43 121.57 411.43 126.738V159H395.47V129.246C395.394 125.142 394.178 121.836 391.822 119.328C389.466 116.82 386.388 115.566 382.588 115.566C380.156 115.566 377.952 116.174 375.976 117.39C374 118.606 372.442 120.24 371.302 122.292C370.162 124.344 369.592 126.662 369.592 129.246V159H353.746ZM455.224 160.14C449.296 160.14 443.938 158.848 439.15 156.264C434.438 153.68 430.714 150.146 427.978 145.662C425.318 141.102 423.988 136.048 423.988 130.5C423.988 124.876 425.318 119.822 427.978 115.338C430.714 110.854 434.438 107.32 439.15 104.736C443.938 102.152 449.296 100.86 455.224 100.86C461.076 100.86 466.358 102.152 471.07 104.736C475.858 107.32 479.62 110.892 482.356 115.452C485.092 119.936 486.46 124.952 486.46 130.5C486.46 136.048 485.092 141.102 482.356 145.662C479.62 150.146 475.858 153.68 471.07 156.264C466.358 158.848 461.076 160.14 455.224 160.14ZM455.224 145.434C457.96 145.434 460.468 144.788 462.748 143.496C465.028 142.204 466.814 140.418 468.106 138.138C469.474 135.858 470.158 133.312 470.158 130.5C470.158 127.688 469.474 125.142 468.106 122.862C466.814 120.582 465.028 118.796 462.748 117.504C460.468 116.136 457.96 115.452 455.224 115.452C452.412 115.452 449.866 116.136 447.586 117.504C445.306 118.796 443.482 120.582 442.114 122.862C440.822 125.142 440.176 127.688 440.176 130.5C440.176 133.312 440.822 135.858 442.114 138.138C443.482 140.418 445.306 142.204 447.586 143.496C449.866 144.788 452.412 145.434 455.224 145.434ZM500.032 159V102H515.878V120.81C516.79 114.578 518.88 109.714 522.148 106.218C525.416 102.646 529.862 100.86 535.486 100.86C541.718 100.86 546.43 102.684 549.622 106.332C552.814 109.904 554.714 114.996 555.322 121.608C556.158 115.072 558.172 109.98 561.364 106.332C564.632 102.684 569.23 100.86 575.158 100.86C580.174 100.86 584.126 101.886 587.014 103.938C589.978 105.914 592.068 108.726 593.284 112.374C594.576 116.022 595.222 120.582 595.222 126.054V159H579.262V128.562C579.186 124.686 578.084 121.57 575.956 119.214C573.828 116.782 571.054 115.566 567.634 115.566C565.354 115.566 563.302 116.174 561.478 117.39C559.654 118.606 558.21 120.24 557.146 122.292C556.082 124.344 555.55 126.662 555.55 129.246V159H539.59V128.562C539.514 124.686 538.412 121.57 536.284 119.214C534.156 116.782 531.382 115.566 527.962 115.566C525.682 115.566 523.63 116.174 521.806 117.39C519.982 118.606 518.538 120.24 517.474 122.292C516.41 124.344 515.878 126.662 515.878 129.246V159H500.032ZM612.807 159V102H628.653V159H612.807ZM620.217 95.502L610.755 74.07H630.933L621.357 95.502H620.217ZM647.319 159V78.06H663.165V129.36H667.953L686.649 102H703.407L684.141 129.246L704.661 159H686.193L667.725 131.64H663.165V159H647.319Z" fill="#5F1D07"/>
</svg>
